<?xml version="1.0" encoding="utf-8"?>
<!-- Generator: Adobe Illustrator 23.0.6, SVG Export Plug-In . SVG Version: 6.00 Build 0)  -->
<svg version="1.1" id="Layer_1" xmlns="http://www.w3.org/2000/svg" xmlns:xlink="http://www.w3.org/1999/xlink" x="0px" y="0px"
	 viewBox="0 0 729.9 204.3" style="enable-background:new 0 0 729.9 204.3;" xml:space="preserve">
<style type="text/css">
	.st0{fill:#706F6F;}
	.st1{fill:#95C11F;}
	.st2{fill:#EFD500;}
	.st3{fill:#164194;}
	.st4{fill:#6F286A;}
	.st5{fill:#0094CD;}
	.st6{fill:#F39200;}
	.st7{fill:#D51317;}
	.st8{fill:#31B7BC;}
	.st9{fill:#007B3D;}
</style>
<g>
	<g>
		<path class="st0" d="M198.8,120.5h-11.2v-15h11.2c0-20.4,7.1-26.6,26.9-26.6c3.7,0,7.5,0.3,11.2,0.4v16.4
			c-2.2-0.3-4.2-0.4-6.3-0.4c-5.3,0-8.6,0.7-8.6,7.1v3.1h13.9v15H222v55.9h-23.2L198.8,120.5L198.8,120.5z"/>
		<path class="st0" d="M240.4,105.5h22.5v12.4h0.3c3.4-9,11.3-13.8,21.3-13.8c1.8,0,3.7,0.1,5.5,0.5v21.2c-3-0.8-5.7-1.4-8.9-1.4
			c-11.5,0-17.5,7.9-17.5,16.8v35.1h-23.2V105.5z"/>
		<path class="st0" d="M327.5,160.7c10.8,0,14.2-10.7,14.2-19.7c0-9-3.4-19.8-14.2-19.8S313.4,132,313.4,141
			S316.7,160.7,327.5,160.7 M327.5,103.5c22,0,37.4,16.3,37.4,37.6c0,21.3-15.4,37.4-37.4,37.4s-37.3-16.1-37.3-37.4
			C290.2,119.7,305.5,103.5,327.5,103.5"/>
		<path class="st0" d="M369.5,105.5h22.5v9.7h0.3c4.2-7.2,13.8-11.7,22.3-11.7c23.6,0,25.5,17.2,25.5,27.5v45.5h-23.2v-34.3
			c0-9.7,1.1-19.5-11.6-19.5c-8.7,0-12.6,7.4-12.6,15.2v38.7h-23.2L369.5,105.5L369.5,105.5z"/>
		<path class="st0" d="M492.3,120.5H478v32.2c0,5.6,3.3,6.8,8.3,6.8c1.9,0,4-0.3,6-0.3v17.1c-4.2,0.1-8.5,0.7-12.7,0.7
			c-19.8,0-24.9-5.7-24.9-25v-31.6H443v-15h11.8V84.1H478v21.4h14.3L492.3,120.5L492.3,120.5z"/>
	</g>
	<path class="st0" d="M498,105.5h23.2v70.9H498V105.5z M521.2,96.6H498V78.9h23.2V96.6L521.2,96.6z"/>
	<g>
		<path class="st0" d="M578.9,133.7c-0.4-7.9-6-14.5-13.8-14.5c-8.2,0-13.7,5.9-15,14.5H578.9z M550.1,146.6
			c0.4,9.7,6,16.1,15.8,16.1c5.6,0,11.1-2.6,13.2-7.8h21.7c-4.2,16.4-19.4,23.5-35.2,23.5c-23.1,0-38.8-13.9-38.8-37.7
			c0-21.7,17.3-37.3,38.3-37.3c25.4,0,38.1,19.1,37,43.2H550.1z"/>
		<path class="st0" d="M607.8,105.5h22.5v12.4h0.3c3.4-9,11.3-13.8,21.3-13.8c1.8,0,3.7,0.1,5.5,0.5v21.2c-3-0.8-5.7-1.4-8.9-1.4
			c-11.5,0-17.5,7.9-17.5,16.8v35.1h-23.2V105.5L607.8,105.5z"/>
		<path class="st0" d="M683.3,153.1c0,3.6,1.5,6.1,3.8,7.9c2.2,1.6,5.3,2.5,8.6,2.5c4.5,0,10.9-1.9,10.9-7.5c0-5.5-7.2-6.6-11.3-7.5
			c-14.6-3.7-32.9-4.1-32.9-23.2c0-17.1,18.4-21.7,32.4-21.7c15.6,0,31.8,4.5,32.6,22.9H706c0-3-1.1-4.9-3-6.1
			c-1.9-1.2-4.5-1.8-7.4-1.8c-3.8,0-10,0.4-10,5.3c0,6.7,15.6,7.9,26.2,10.2c14.3,2.9,18,13.2,18,19.1c0,19-18,25.3-34,25.3
			c-16.8,0-34-5.6-34.7-25.4L683.3,153.1L683.3,153.1z"/>
	</g>
	<g>
		<g>
			<polygon class="st1" points="-0.2,172.9 0,100.8 67.4,79.7 67.2,151.9 			"/>
			<polygon class="st2" points="67.2,151.9 67.4,79.7 113.1,111.2 112.9,183.3 			"/>
			<polygon class="st3" points="45.5,204.3 -0.2,172.9 67.2,151.9 112.9,183.3 			"/>
		</g>
		<g>
			<polygon class="st4" points="65.8,76.1 84.2,34.1 107.7,89.6 89.4,131.6 			"/>
			<polygon class="st5" points="89.4,131.6 107.7,89.6 169.6,79.6 151.4,121.1 			"/>
			<polygon class="st6" points="107.7,89.6 84.2,34.1 146,24.1 169.6,79.6 			"/>
		</g>
		<g>
			<polygon class="st7" points="67.4,79.7 21.4,71 15.9,25.5 62,34.2 			"/>
			<polygon class="st8" points="62,34.2 15.9,25.5 41.4,0 87.5,8.7 			"/>
			<polygon class="st9" points="92.8,54.4 67.4,79.7 62,34.2 87.5,8.7 			"/>
		</g>
	</g>
</g>
</svg>
